<?xml version="1.0" encoding="UTF-8" standalone="no"?>
<!-- Created with Inkscape (http://www.inkscape.org/) -->

<svg
   width="933.27484mm"
   height="113.87108mm"
   viewBox="0 0 933.27484 113.87108"
   version="1.1"
   id="svg1"
   inkscape:export-filename="bitmap.svg"
   inkscape:export-xdpi="34.208755"
   inkscape:export-ydpi="34.208755"
   inkscape:version="1.4 (e7c3feb1, 2024-10-09)"
   sodipodi:docname="FullNameLogo.svg"
   xmlns:inkscape="http://www.inkscape.org/namespaces/inkscape"
   xmlns:sodipodi="http://sodipodi.sourceforge.net/DTD/sodipodi-0.dtd"
   xmlns="http://www.w3.org/2000/svg"
   xmlns:svg="http://www.w3.org/2000/svg">
  <sodipodi:namedview
     id="namedview1"
     pagecolor="#ffffff"
     bordercolor="#000000"
     borderopacity="1"
     inkscape:showpageshadow="0"
     inkscape:pageopacity="0"
     inkscape:pagecheckerboard="0"
     inkscape:deskcolor="#282828"
     inkscape:document-units="mm"
     inkscape:zoom="0.2296605"
     inkscape:cx="2061.739"
     inkscape:cy="437.60246"
     inkscape:window-width="1464"
     inkscape:window-height="916"
     inkscape:window-x="0"
     inkscape:window-y="38"
     inkscape:window-maximized="0"
     inkscape:current-layer="layer1"
     showgrid="false">
    <inkscape:page
       x="0"
       y="0"
       width="933.27484"
       height="113.87108"
       id="page2"
       margin="0"
       bleed="0" />
  </sodipodi:namedview>
  <defs
     id="defs1" />
  <g
     inkscape:label="Layer 1"
     inkscape:groupmode="layer"
     id="layer1"
     transform="translate(-49.86259,-91.564459)">
    <path
       id="path5"
       style="fill:#00558e;fill-opacity:1;stroke-width:0.264583"
       d="M 106.79813,91.564458 A 56.935547,56.935547 0 0 0 49.86259,148.5 56.935547,56.935547 0 0 0 106.79813,205.43554 56.935547,56.935547 0 0 0 163.73368,148.5 56.935547,56.935547 0 0 0 106.79813,91.564458 Z m 0,6.975802 A 49.959995,49.959995 0 0 1 156.75839,148.5 49.959995,49.959995 0 0 1 106.79813,198.46026 49.959995,49.959995 0 0 1 56.838391,148.5 49.959995,49.959995 0 0 1 106.79813,98.54026 Z m 297.43249,10.1663 v 78.31667 h 8.46667 v -8.8899 h 0.42375 c 3.24554,6.77331 8.57211,10.16011 15.98042,10.16011 3.38665,0 6.45605,-0.6707 9.2077,-2.01125 2.75166,-1.34055 5.08011,-3.24546 6.98511,-5.7149 1.97555,-2.46943 3.45691,-5.46806 4.44469,-8.99583 1.05833,-3.52777 1.5875,-7.47859 1.5875,-11.85302 0,-4.37443 -0.52917,-8.32578 -1.5875,-11.85354 -0.98778,-3.52777 -2.46914,-6.5264 -4.44469,-8.99584 -1.905,-2.46943 -4.23345,-4.37434 -6.98511,-5.71489 -2.75165,-1.34056 -5.82105,-2.01073 -9.2077,-2.01073 -3.80999,0 -7.09064,0.84656 -9.8423,2.53989 -2.6811,1.62278 -4.72702,4.163 -6.13812,7.62021 h -0.42375 v -32.59698 z m 534.13949,0 v 69.53271 c 0,2.53999 0.74094,4.65667 2.22261,6.35 1.55221,1.62277 3.8099,2.43396 6.77323,2.43396 h 7.51427 v -7.40833 h -8.04344 v -70.90834 z m 28.25719,0 v 69.53271 c 0,2.53999 0.74094,4.65667 2.22261,6.35 1.55221,1.62277 3.8099,2.43396 6.77323,2.43396 h 7.51427 v -7.40833 h -8.04344 v -70.90834 z m -873.269691,2.22261 v 7.83156 h 25.400001 v 45.29698 c 0,4.72722 -1.05833,8.255 -3.175,10.58333 -2.11667,2.32833 -5.0799,3.49229 -8.8899,3.49229 -3.81,0 -6.702982,-0.98757 -8.678537,-2.96312 -1.975556,-2.04611 -3.315905,-4.65708 -4.02146,-7.83208 l -8.043437,1.90531 c 0.987778,5.08 3.210071,9.17232 6.667293,12.27677 3.527778,3.03389 8.149271,4.55062 13.864271,4.55062 3.10444,0 5.96205,-0.4584 8.5726,-1.37562 2.61056,-0.98778 4.83285,-2.36403 6.6673,-4.12792 1.905,-1.76389 3.35149,-3.91542 4.33927,-6.45542 1.05833,-2.54 1.5875,-5.36222 1.5875,-8.46666 v -54.71604 z m 89.893741,2.2226 v 7.83156 h 25.4 v 45.29646 c 0,4.72721 -1.05834,8.25501 -3.175,10.58334 -2.11666,2.32832 -5.07991,3.49281 -8.8899,3.49281 -3.80999,0 -6.70247,-0.9881 -8.67802,-2.96365 -1.97555,-2.0461 -3.31643,-4.65657 -4.02198,-7.83156 l -8.04344,1.90479 c 0.98778,5.07999 3.2106,9.17234 6.66781,12.27677 3.52777,3.03388 8.14929,4.55115 13.86427,4.55115 3.10444,0 5.96154,-0.45893 8.57209,-1.37615 2.61055,-0.98777 4.83337,-2.36351 6.66781,-4.12739 1.90499,-1.76389 3.35098,-3.91595 4.33875,-6.45594 1.05833,-2.53999 1.5875,-5.36223 1.5875,-8.46667 v -54.71552 z m 308.18584,0 v 73.87146 h 8.67854 v -62.22979 h 0.52916 l 6.24407,12.3827 17.67385,32.17323 17.67438,-32.17323 6.24406,-12.3827 h 0.52917 v 62.22979 h 8.67854 v -73.87146 h -11.43031 l -21.27209,39.79344 h -0.52917 l -21.16666,-39.79344 z m 139.17031,0 v 73.87146 h 24.7649 c 4.5861,0 8.74921,-0.77632 12.48864,-2.32854 3.73944,-1.55222 6.91446,-3.84529 9.525,-6.87917 2.68111,-3.10443 4.72702,-6.94963 6.13813,-11.53573 1.41111,-4.65665 2.11667,-10.05398 2.11667,-16.19229 0,-6.13831 -0.70556,-11.50026 -2.11667,-16.08636 -1.41111,-4.65665 -3.45702,-8.50236 -6.13813,-11.53624 -2.61054,-3.10444 -5.78556,-5.43237 -9.525,-6.98459 -3.73943,-1.55222 -7.90254,-2.32854 -12.48864,-2.32854 z m 8.89042,7.83156 h 15.87448 c 3.03388,0 5.82125,0.52917 8.36125,1.5875 2.53999,0.98778 4.72691,2.46966 6.56135,4.44521 1.83444,1.97555 3.24556,4.40963 4.23334,7.3024 1.05833,2.82221 1.5875,6.06748 1.5875,9.73635 v 12.06542 c 0,3.66887 -0.52917,6.94952 -1.5875,9.84229 -0.98778,2.82221 -2.3989,5.22091 -4.23334,7.19646 -1.83444,1.97555 -4.02136,3.49281 -6.56135,4.55114 -2.54,0.98778 -5.32737,1.48157 -8.36125,1.48157 h -15.87448 z m -386.39657,10.16011 c -4.93888,0 -9.03123,1.05834 -12.27677,3.175 -3.24555,2.0461 -5.60886,4.55094 -7.09053,7.51427 l 5.0798,4.7625 c 1.48166,-2.46944 3.31632,-4.44511 5.50354,-5.92677 2.25777,-1.48167 5.04463,-2.22261 8.36073,-2.22261 4.37443,0 7.61969,1.02296 9.73635,3.06907 2.11666,2.0461 3.175,5.00935 3.175,8.88989 v 5.39761 h -10.79469 c -7.97275,0 -13.86438,1.37573 -17.67437,4.12739 -3.73943,2.75166 -5.60896,6.703 -5.60896,11.85354 0,5.07999 1.58751,9.10158 4.7625,12.0649 3.24555,2.96332 7.76092,4.44521 13.54646,4.44521 3.80999,0 7.09115,-0.84709 9.84281,-2.54042 2.75166,-1.69333 4.72681,-4.23303 5.92625,-7.61969 h 0.52917 c 0.35278,2.53999 1.19986,4.65667 2.54041,6.35 1.41111,1.69333 3.70418,2.5399 6.87917,2.5399 h 4.7625 v -7.40833 h -6.24458 v -30.05657 c 0,-5.78553 -1.83415,-10.30091 -5.50302,-13.54646 -3.66888,-3.24554 -8.81957,-4.86843 -15.45177,-4.86843 z m 59.58396,0 c -3.80999,0 -7.23165,0.67017 -10.26553,2.01073 -3.03388,1.34055 -5.60948,3.24546 -7.72614,5.71489 -2.0461,2.46944 -3.63361,5.46807 -4.7625,8.99584 -1.05833,3.52776 -1.5875,7.47911 -1.5875,11.85354 0,4.37443 0.52917,8.32525 1.5875,11.85302 1.12889,3.52777 2.7164,6.5264 4.7625,8.99583 2.11666,2.46944 4.69226,4.37435 7.72614,5.7149 3.03388,1.34055 6.45554,2.01125 10.26553,2.01125 5.22109,0 9.5606,-1.16449 13.01781,-3.49281 3.52776,-2.32833 6.1731,-5.46797 7.93698,-9.41907 l -6.13813,-4.12739 c -3.03388,6.34998 -7.9728,9.525 -14.81666,9.525 -5.00943,0 -8.81925,-1.51727 -11.4298,-4.55115 -2.53999,-3.10443 -3.8101,-7.05526 -3.8101,-11.85302 v -9.31313 c 0,-2.39888 0.3174,-4.58632 0.9524,-6.56187 0.63499,-2.04611 1.58771,-3.77462 2.8577,-5.18573 1.27,-1.48166 2.85751,-2.61077 4.7625,-3.38687 1.905,-0.84667 4.1273,-1.26969 6.6673,-1.26969 3.38665,0 6.20889,0.7758 8.46666,2.32802 2.25777,1.55222 3.88067,3.73966 4.86844,6.56187 l 7.09052,-3.59823 c -1.62277,-3.80998 -4.09171,-6.87938 -7.40781,-9.2077 -3.24555,-2.39889 -7.58505,-3.59823 -13.01781,-3.59823 z m 52.91666,0 c -3.66887,0 -7.02028,0.67017 -10.05416,2.01073 -3.03388,1.34055 -5.64435,3.28084 -7.83157,5.82083 -2.11666,2.46944 -3.77493,5.46807 -4.97437,8.99583 -1.19944,3.52777 -1.79886,7.44373 -1.79886,11.74761 0,4.37443 0.59942,8.32525 1.79886,11.85302 1.19944,3.45721 2.85771,6.45584 4.97437,8.99583 2.18722,2.46944 4.79769,4.37435 7.83157,5.7149 3.03388,1.34055 6.38529,2.01125 10.05416,2.01125 3.66888,0 6.98491,-0.6707 9.94823,-2.01125 3.03388,-1.34055 5.64435,-3.24546 7.83157,-5.7149 2.18721,-2.53999 3.88035,-5.53862 5.07979,-8.99583 1.19944,-3.52777 1.79937,-7.47859 1.79937,-11.85302 0,-4.30388 -0.59993,-8.21984 -1.79937,-11.74761 -1.19944,-3.52776 -2.89258,-6.52639 -5.07979,-8.99583 -2.18722,-2.53999 -4.79769,-4.48028 -7.83157,-5.82083 -2.96332,-1.34056 -6.27935,-2.01073 -9.94823,-2.01073 z m 231.2448,0 c -3.80998,0 -7.23164,0.67017 -10.26552,2.01073 -3.03388,1.34055 -5.60948,3.24546 -7.72614,5.71489 -2.04611,2.46944 -3.6331,5.46807 -4.76199,8.99584 -1.05833,3.52776 -1.5875,7.47911 -1.5875,11.85354 0,4.37443 0.52917,8.32525 1.5875,11.85302 1.12889,3.52777 2.71588,6.5264 4.76199,8.99583 2.11666,2.46944 4.69226,4.37435 7.72614,5.7149 3.03388,1.34055 6.45554,2.01125 10.26552,2.01125 5.2211,0 9.5606,-1.16449 13.01781,-3.49281 3.52777,-2.32833 6.17362,-5.46797 7.9375,-9.41907 l -6.13864,-4.12739 c -3.03388,6.34998 -7.9728,9.525 -14.81667,9.525 -5.00943,0 -8.81924,-1.51727 -11.42979,-4.55115 -2.53999,-3.10443 -3.8101,-7.05526 -3.8101,-11.85302 v -9.31313 c 0,-2.39888 0.3174,-4.58632 0.95239,-6.56187 0.635,-2.04611 1.58771,-3.77462 2.85771,-5.18573 1.27,-1.48166 2.85751,-2.61077 4.7625,-3.38687 1.90499,-0.84667 4.1273,-1.26969 6.66729,-1.26969 3.38666,0 6.2089,0.7758 8.46667,2.32802 2.25777,1.55222 3.88066,3.73966 4.86844,6.56187 l 7.09104,-3.59823 c -1.62278,-3.80998 -4.09224,-6.87938 -7.40834,-9.2077 -3.24554,-2.39889 -7.58505,-3.59823 -13.01781,-3.59823 z m 124.56553,0 c -3.66888,0 -7.02029,0.67017 -10.05417,2.01073 -3.03388,1.34055 -5.64435,3.28084 -7.83156,5.82083 -2.11666,2.46944 -3.77494,5.46807 -4.97438,8.99583 -1.19944,3.52777 -1.79885,7.44373 -1.79885,11.74761 0,4.37443 0.59941,8.32525 1.79885,11.85302 1.19944,3.45721 2.85772,6.45584 4.97438,8.99583 2.18721,2.46944 4.79768,4.37435 7.83156,5.7149 3.03388,1.34055 6.38529,2.01125 10.05417,2.01125 3.66887,0 6.9849,-0.6707 9.94823,-2.01125 3.03388,-1.34055 5.64434,-3.24546 7.83156,-5.7149 2.18722,-2.53999 3.88087,-5.53862 5.08031,-8.99583 1.19944,-3.52777 1.79886,-7.47859 1.79886,-11.85302 0,-4.30388 -0.59942,-8.21984 -1.79886,-11.74761 -1.19944,-3.52776 -2.89309,-6.52639 -5.08031,-8.99583 -2.18722,-2.53999 -4.79768,-4.48028 -7.83156,-5.82083 -2.96333,-1.34056 -6.27936,-2.01073 -9.94823,-2.01073 z m 62.97083,0 c -4.09221,0 -7.37337,0.91733 -9.84281,2.75177 -2.39888,1.83444 -4.26841,4.3039 -5.60896,7.40833 h -0.42323 v -8.8899 h -8.46667 v 54.60959 h 8.46667 V 149.1351 c 0,-1.76388 0.35278,-3.28114 1.05833,-4.55114 0.77611,-1.34055 1.79907,-2.43376 3.06907,-3.28042 1.26999,-0.84666 2.68111,-1.48198 4.23333,-1.90531 1.62277,-0.42333 3.28053,-0.6351 4.97386,-0.6351 8.25497,0 12.3827,4.90405 12.3827,14.71124 v 33.54886 h 8.46667 v -35.03094 c 0,-6.6322 -1.65827,-11.74699 -4.97437,-15.34531 -3.24555,-3.66888 -7.69016,-5.50354 -13.33459,-5.50354 z m 60.11313,0 c -4.09221,0 -7.37338,0.91733 -9.84281,2.75177 -2.39888,1.83444 -4.26841,4.3039 -5.60896,7.40833 h -0.42323 v -8.8899 h -8.46667 v 54.60959 h 8.46667 V 149.1351 c 0,-1.76388 0.35278,-3.28114 1.05833,-4.55114 0.77611,-1.34055 1.79907,-2.43376 3.06906,-3.28042 1.27,-0.84666 2.68112,-1.48198 4.23334,-1.90531 1.62277,-0.42333 3.28104,-0.6351 4.97437,-0.6351 8.25497,0 12.38219,4.90405 12.38219,14.71124 v 33.54886 h 8.46667 v -35.03094 c 0,-6.6322 -1.65776,-11.74699 -4.97386,-15.34531 -3.24555,-3.66888 -7.69068,-5.50354 -13.3351,-5.50354 z m 56.30302,0 c -3.73943,0 -7.12571,0.67017 -10.15959,2.01073 -2.96332,1.34055 -5.53892,3.28084 -7.72614,5.82083 -2.11666,2.46944 -3.77442,5.46807 -4.97386,8.99583 -1.12888,3.52777 -1.69343,7.44373 -1.69343,11.74761 0,4.37443 0.56455,8.32525 1.69343,11.85302 1.19944,3.45721 2.8572,6.45584 4.97386,8.99583 2.18722,2.46944 4.76282,4.37435 7.72614,5.7149 3.03388,1.34055 6.42016,2.01125 10.15959,2.01125 5.15054,0 9.59567,-1.12911 13.3351,-3.38688 3.73944,-2.32832 6.49091,-5.36233 8.2548,-9.10177 l -6.03219,-4.33927 c -1.41111,3.03388 -3.42216,5.36233 -6.03271,6.98511 -2.53999,1.62277 -5.53862,2.43447 -8.99583,2.43447 -2.54,0 -4.83307,-0.42354 -6.87917,-1.2702 -1.97555,-0.84667 -3.66869,-2.01063 -5.07979,-3.4923 -1.34055,-1.48166 -2.39889,-3.21069 -3.175,-5.18624 -0.70556,-2.04611 -1.05834,-4.23303 -1.05834,-6.56136 v -2.5399 h 39.26427 v -4.02197 c 0,-3.88055 -0.56455,-7.44321 -1.69343,-10.68876 -1.05833,-3.24554 -2.61046,-6.03292 -4.65657,-8.36124 -2.0461,-2.39889 -4.51556,-4.26841 -7.40833,-5.60896 -2.89277,-1.34056 -6.17393,-2.01073 -9.84281,-2.01073 z m 0,7.09052 c 4.37443,0 7.86685,1.48188 10.4774,4.44521 2.6811,2.89276 4.02197,6.77334 4.02197,11.64166 v 1.16427 h -30.1625 v -0.74104 c 0,-2.39888 0.38816,-4.5858 1.16427,-6.56135 0.77611,-2.04611 1.83445,-3.81001 3.175,-5.29167 1.41111,-1.48166 3.06887,-2.61077 4.97386,-3.38687 1.90499,-0.84667 4.02167,-1.27021 6.35,-1.27021 z m -535.19731,0.42375 c 4.5861,0 8.32567,1.41112 11.21844,4.23333 2.89277,2.82221 4.33875,7.12582 4.33875,12.91136 v 7.83156 c 0,5.78554 -1.44598,10.08966 -4.33875,12.91187 -2.89277,2.82222 -6.63234,4.23334 -11.21844,4.23334 -4.58609,0 -8.32566,-1.41112 -11.21843,-4.23334 -2.89277,-2.82221 -4.33927,-7.12633 -4.33927,-12.91187 v -7.83156 c 0,-5.78554 1.4465,-10.08915 4.33927,-12.91136 2.89277,-2.82221 6.63234,-4.23333 11.21843,-4.23333 z m 355.81033,0 c 4.58609,0 8.32566,1.41112 11.21843,4.23333 2.89277,2.82221 4.33927,7.12582 4.33927,12.91136 v 7.83156 c 0,5.78554 -1.4465,10.08966 -4.33927,12.91187 -2.89277,2.82222 -6.63234,4.23334 -11.21843,4.23334 -4.5861,0 -8.32567,-1.41112 -11.21844,-4.23334 -2.89277,-2.82221 -4.33875,-7.12633 -4.33875,-12.91187 v -7.83156 c 0,-5.78554 1.44598,-10.08915 4.33875,-12.91136 2.89277,-2.82221 6.63234,-4.23333 11.21844,-4.23333 z m -294.63887,0.10542 c 4.79777,0 8.5722,1.51726 11.32386,4.55114 2.75166,2.96332 4.1274,6.87929 4.1274,11.7476 v 9.31313 c 0,4.86832 -1.37574,8.81914 -4.1274,11.85302 -2.75166,2.96333 -6.52609,4.44521 -11.32386,4.44521 -1.90499,0 -3.73965,-0.24715 -5.50354,-0.74104 -1.69332,-0.49389 -3.17469,-1.19945 -4.44469,-2.11667 -1.26999,-0.98777 -2.29347,-2.15174 -3.06958,-3.49229 -0.70555,-1.41111 -1.05833,-2.99862 -1.05833,-4.7625 v -20.31969 c 0,-1.48166 0.35278,-2.85792 1.05833,-4.12791 0.77611,-1.34056 1.79959,-2.46914 3.06958,-3.38636 1.27,-0.91722 2.75137,-1.62278 4.44469,-2.11667 1.76389,-0.56444 3.59855,-0.84697 5.50354,-0.84697 z M 254.37155,162.1524 h 11.21792 v 8.99583 c 0,1.41111 -0.35278,2.7166 -1.05833,3.91604 -0.70555,1.19944 -1.69313,2.25778 -2.96313,3.175 -1.26999,0.91722 -2.78674,1.62278 -4.55062,2.11667 -1.76389,0.49388 -3.70418,0.74052 -5.82084,0.74052 -3.3161,0 -5.96195,-0.74094 -7.9375,-2.2226 -1.90499,-1.48167 -2.8577,-3.56296 -2.8577,-6.24407 v -2.2226 c 0,-2.6811 1.09372,-4.72702 3.28093,-6.13813 2.25777,-1.4111 5.82096,-2.11666 10.68927,-2.11666 z" />
  </g>
</svg>
